<svg id="Capa_1" data-name="Capa 1" xmlns="http://www.w3.org/2000/svg" viewBox="0 0 346.91 53.86"><defs><style>.cls-1{fill:#004155;}.cls-2{fill:#fff;}.cls-3{fill:#f2a640;}</style></defs><polyline class="cls-1" points="0 0 9.13 0 8.95 51.98 0 51.98 0 0.26 0 0"/><path class="cls-1" d="M33.55,29.29h9v4.39S48.64,28,56.78,28.41s11.46,3.92,14.15,6.49,4.45,7,4.92,11.53,0,23.93,0,23.93h-9V46.84s-.7-8.42-10.47-10.41c0,0-11.18-1.23-13.75,10.29V70.36H33.55Z" transform="translate(-19.21 -18.38)"/><polygon class="cls-1" points="54.94 10.79 65.12 10.79 80.68 41.74 96.19 10.79 106.43 10.79 85.83 51.98 75.59 51.98 54.94 10.79"/><path class="cls-1" d="M144,28.34" transform="translate(-19.21 -18.38)"/><path class="cls-2" d="M156,45.2" transform="translate(-19.21 -18.38)"/><path class="cls-1" d="M195.2,43.26l6-6.78s-7.36-8.67-18.4-7.94-13.72,9.83-13.66,10.17-2.46,10.89,10.08,14.14c0,0,6.7,1.51,8.86,1.92s6.7,2.69,2.24,6.29c0,0-3.29,2.59-8.81.12a26.07,26.07,0,0,1-6.15-5.11l-6.22,6.45s5.07,6,10.27,7.42a29.46,29.46,0,0,0,6.74,1c2.64-.09,7.92-1,10.81-3.75s3-3.23,3.95-5.7a14.87,14.87,0,0,0-.09-6.58c-.88-3.44-2.95-5.9-7.4-8a10.45,10.45,0,0,0-2.6-.8c-1.3-.19-9.27-2-9.27-2s-3.89-.44-3.56-3.41,4.79-3.93,7.49-3.45a11.73,11.73,0,0,1,6.65,3.16A32,32,0,0,0,195.2,43.26Z" transform="translate(-19.21 -18.38)"/><polygon class="cls-3" points="204.61 27.82 204.61 9.9 213.5 9.9 213.5 27.82 232.37 27.82 232.37 35.69 213.54 35.64 213.52 53.86 204.61 53.86 204.61 35.69 185.72 35.69 185.72 27.82 204.61 27.82"/><path class="cls-1" d="M335,32.18V18.38h9l0,51.88H335V48.93s-.76-11.52-12.73-11.49c0,0-11.68.72-11.78,11.12,0,0-.52,5.54,3,9.3s8.07,5.07,12.76,3.63a14.52,14.52,0,0,0,3.44-1.62L333.76,68a20.1,20.1,0,0,1-10.34,3.16,21.8,21.8,0,0,1-15.17-5.57A21.48,21.48,0,0,1,301.54,53,20.31,20.31,0,0,1,305,37.83c3.67-5.59,8.41-8.14,14.89-9.51S334.32,31.79,335,32.18Z" transform="translate(-19.21 -18.38)"/><path class="cls-1" d="M158.07,33.26c-11.21-9.2-23.61-3.13-26.82-.34s-10.12,11.64-7.08,22.52S137.06,70.94,144.74,71A21.18,21.18,0,0,0,163,60.58L155.29,56s-3.68,6.15-10.53,5.82-9.47-4.05-11.28-7.43l32-.17S169.29,42.45,158.07,33.26ZM133.66,46a11.66,11.66,0,0,1,12.16-7.78A12.35,12.35,0,0,1,156.18,46Z" transform="translate(-19.21 -18.38)"/><path class="cls-1" d="M289.74,33.26c-11.22-9.2-23.62-3.13-26.82-.34s-10.12,11.64-7.09,22.52,12.9,15.5,20.58,15.55a21.16,21.16,0,0,0,18.22-10.41L287,56s-3.68,6.15-10.53,5.82-9.48-4.05-11.28-7.43l32-.17S301,42.45,289.74,33.26ZM265.17,46a11.67,11.67,0,0,1,12.17-7.78A12.37,12.37,0,0,1,287.7,46Z" transform="translate(-19.21 -18.38)"/><path class="cls-1" d="M359.11,32.41a7,7,0,1,1,7-7A7,7,0,0,1,359.11,32.41Zm0-12.85A5.84,5.84,0,1,0,365,25.4,5.85,5.85,0,0,0,359.11,19.56Z" transform="translate(-19.21 -18.38)"/><path class="cls-1" d="M362.21,28.35h-1.63l-1-1.63q-.1-.18-.21-.33a1.69,1.69,0,0,0-.2-.25A.78.78,0,0,0,359,26a.48.48,0,0,0-.24-.06h-.39v2.42h-1.42V22h2.26c1.53,0,2.3.57,2.3,1.72a2,2,0,0,1-.1.61,1.77,1.77,0,0,1-.29.5,1.71,1.71,0,0,1-.45.39,2.18,2.18,0,0,1-.58.26v0a.7.7,0,0,1,.27.14,1.79,1.79,0,0,1,.26.23,3.11,3.11,0,0,1,.23.28c.08.11.15.2.21.3Zm-3.88-5.25v1.76H359a1,1,0,0,0,.74-.27.91.91,0,0,0,.28-.66c0-.56-.33-.83-1-.83Z" transform="translate(-19.21 -18.38)"/></svg>